<svg width="473" height="288" viewBox="0 0 473 288" fill="none" xmlns="http://www.w3.org/2000/svg">
<path d="M76.3028 102.205C76.3074 102.196 76.3148 102.181 76.3277 102.16C76.3167 102.183 76.3102 102.195 76.3065 102.203L76.3028 102.205ZM59.8106 120.017C60.3779 119.965 61.1771 119.801 61.6039 119.385C62.1694 118.837 63.1146 117.843 63.9563 117.811C64.6058 117.786 65.2867 117.646 65.8494 117.303C66.2587 117.053 66.2273 116.728 65.7006 116.748C63.2208 116.844 60.959 117.885 59.186 119.609C58.7545 120.027 59.5666 120.04 59.8106 120.017ZM70.2048 148.807C68.5861 149.169 67.044 148.586 66.0748 147.252C65.575 146.565 62.9852 147.454 63.5821 148.273C65.1888 150.484 68.0899 150.592 70.5374 150.044C70.8895 149.966 71.8504 149.592 71.7099 149.066C71.5639 148.524 70.5587 148.728 70.2048 148.807ZM150.833 237.805C139.688 255.778 119.619 280.85 95.5299 276.259C84.3115 274.122 75.3539 264.352 68.9021 255.59C61.3212 245.295 55.4246 233.972 48.6374 223.17C47.9075 222.008 50.4677 221.011 51.0923 222.004C56.9519 231.33 62.0622 241.121 68.3348 250.188C74.4623 259.046 82.0026 268.909 92.3525 273.023C115.947 282.401 137.602 254.78 148.353 237.412L148.354 237.411C144.898 233.697 141.042 230.493 136.853 227.683C136.081 228.131 134.768 228.095 134.707 227.202C125.955 235.884 109.333 259.602 96.0029 247.699C89.1547 241.584 83.5317 234.002 78.5581 226.323C74.1158 219.464 68.6332 211.273 67.7287 202.893C67.5513 202.797 67.4201 202.65 67.3702 202.44C66.1534 197.273 62.2368 191.423 56.0104 193.429C49.6805 195.469 45.3085 202.559 42.2706 208.074C36.7667 218.063 33.0091 229.128 30.3574 240.2C28.0568 249.803 26.2837 259.55 25.0152 269.344C24.5301 273.09 24.07 276.851 23.8408 280.623C23.7605 281.953 23.1026 285.116 23.9379 286.309C24.6899 287.384 22.1214 288.371 21.4765 287.451C20.3779 285.881 21.0191 282.594 21.1383 280.864C21.4765 275.958 22.0697 271.067 22.7792 266.201C24.5347 254.168 26.657 241.954 30.447 230.37C32.8058 223.16 35.3115 215.859 38.9841 209.193C41.937 203.833 45.7446 197.047 51.1348 193.779C55.4949 191.136 59.8614 190.854 63.3585 192.54C60.898 188.481 56.5629 185.65 51.4517 187.112C44.6719 189.05 40.1658 196.906 37.0901 202.776C31.5252 213.395 27.9246 225.002 25.0059 236.597C22.4134 246.896 20.1747 257.297 18.3342 267.758C17.6089 271.881 16.8966 276.016 16.4235 280.178C16.2886 281.362 15.4275 284.657 16.1777 285.754C16.9196 286.838 14.3502 287.821 13.7164 286.894C12.6705 285.366 13.5233 282.062 13.721 280.419C14.3539 275.178 15.2455 269.968 16.2165 264.782C18.5726 252.195 21.2298 239.575 24.9052 227.3C26.9979 220.311 29.341 213.271 32.4815 206.679C35.4981 200.347 39.6605 191.944 45.6817 187.9C50.7274 184.511 56.5269 184.343 60.9987 186.824C60.6255 184.241 60.0101 181.674 59.9002 179.073C55.6464 176.765 51.2826 174.835 46.6075 173.632C46.0485 175.186 45.339 176.681 44.7504 178.225C45.2161 178.156 45.6864 178.096 46.1659 178.056C48.0221 177.904 47.1194 179.436 45.8019 179.545C36.6595 180.296 30.5514 188.615 26.4953 196.06C22.2905 203.778 19.2637 212.068 16.6415 220.44C13.769 229.612 10.5602 238.765 8.45271 248.144C5.5996 260.841 4.28114 273.736 3.53645 286.711C3.48471 287.609 0.796059 288.149 0.85981 287.044C1.72646 271.954 3.28329 256.814 7.35045 242.209C9.97073 232.797 12.9329 223.286 16.1833 214.065C20.6385 201.427 27.6262 183.026 41.9001 178.852C41.9102 178.794 41.9186 178.739 41.9398 178.677C42.5903 176.795 43.505 175.017 44.1563 173.135C44.3365 172.615 45.0877 172.322 45.7372 172.334C45.74 172.315 45.7372 172.3 45.7418 172.281C46.0809 170.817 46.4348 169.373 46.7489 167.93C46.7258 167.933 46.7018 167.933 46.6787 167.936L46.0467 170.463C46.0467 170.463 44.0889 169.375 41.3309 167.835C29.8501 166.306 20.5442 156.582 14.2356 147.126C11.4389 149.009 8.64396 150.895 5.84721 152.778C5.10252 153.28 3.7776 152.995 3.60297 152.426C1.36058 151.929 -0.353315 150.302 0.0624553 147.63C0.294363 146.142 1.9713 144.958 3.15025 144.297C7.10192 142.079 11.0203 139.801 14.8704 137.409C27.325 129.674 39.2595 121.176 51.0637 112.49C55.5438 109.193 60.0194 105.889 64.5189 102.619C59.8909 102.572 55.0366 96.5605 52.2731 93.9503C50.6728 92.4397 49.0717 90.8672 47.2681 89.5931C44.646 87.7406 43.7341 87.8052 40.9309 89.7076C35.9139 93.1114 30.8637 96.4634 25.8061 99.8062C22.9742 101.678 20.1423 103.55 17.3179 105.434C15.4811 106.659 9.80535 109.107 9.53741 111.467C9.16322 114.758 10.9824 118.248 12.2529 121.179C14.1395 125.531 19.1565 133.874 14.1608 137.813C13.1472 138.612 10.9714 137.779 12.4016 136.651C17.1109 132.939 7.9353 119.384 7.04648 114.95C6.61777 112.812 6.51429 110.345 8.54787 108.974C14.4509 104.996 20.3863 101.068 26.3216 97.1407C31.528 93.6953 36.6179 89.6106 42.0738 86.5949C44.0713 85.4908 46.3174 86.0904 48.1468 87.2731C51.3372 89.3362 53.9999 92.1209 56.7533 94.7116C58.2741 96.1437 63.3686 101.876 65.9067 100.45C66.4888 100.123 67.0967 100.209 67.4534 100.483C67.7074 100.301 67.9597 100.114 68.2137 99.93C70.9144 97.9926 74.1371 94.6645 77.7423 94.829C80.6601 94.962 80.3321 100.01 78.8621 102.486C79.0441 102.743 78.9841 103.084 78.4546 103.45C76.0681 105.098 73.6733 106.732 71.2831 108.374C73.9551 114.969 76.0552 121.998 81.0352 127.289C81.7309 128.028 79.1855 129.009 78.548 128.332C78.3281 128.098 78.1211 127.856 77.9114 127.617C77.3736 127.934 76.8729 128.316 76.3407 128.642C76.106 128.786 75.8676 128.906 75.6311 129.032C76.7666 130.768 77.6711 132.623 78.2809 134.455C78.9416 136.439 79.9459 139.572 78.2163 141.335C76.9957 142.579 74.9215 142.848 73.3 142.362C69.6477 141.265 66.5978 138.445 64.4884 135.156C63.3668 135.793 62.016 136.255 61.3535 136.576C58.6242 137.9 55.8654 139.151 53.2183 140.628C52.6769 143.861 51.8167 147.08 50.6257 150.287C50.3818 150.944 47.8345 151.199 47.9897 150.778C48.0221 150.691 48.0489 150.605 48.0803 150.519C48.0359 150.466 47.998 150.406 47.9685 150.338C47.294 148.766 44.5786 142.559 41.755 143.9C39.9072 144.778 38.8003 147.073 38.4178 148.99C37.0208 155.996 42.5126 158.06 48.5358 156.374C48.9479 156.26 49.9901 156.203 50.0917 156.825C50.6396 160.181 50.2903 163.376 49.6602 166.577C50.1554 166.633 49.9586 166.985 49.5124 167.287C49.1853 168.854 48.8083 170.424 48.4388 172.018C48.4009 172.18 48.302 172.323 48.1699 172.45C52.6704 173.535 56.89 175.276 60.9867 177.399C63.7345 171.138 67.7084 167.991 73.749 164.56C78.2061 162.03 82.5504 159.02 83.2138 153.507C83.8079 148.572 82.969 143.64 82.8858 138.698C82.8729 137.955 84.5147 137.499 85.2326 137.68C86.5326 135.983 87.6071 133.893 86.9595 131.951C85.9921 129.05 82.6465 128.74 80.0189 128.863C78.7688 128.921 81.2819 127.886 81.7799 127.863C84.2921 127.745 88.5301 127.914 89.5178 130.877C90.5859 134.081 88.0552 137.169 85.9819 139.314C85.9117 139.387 85.7787 139.456 85.6142 139.522C85.9866 147.541 87.8557 156.658 80.3764 162.015C77.4457 164.113 74.2221 165.626 71.1897 167.548C67.0644 170.162 64.8469 173.832 63.1099 178.332C63.0397 178.514 62.8485 178.671 62.6027 178.798C62.8207 182.204 63.8361 185.558 63.947 188.972C63.9479 188.994 63.9406 189.014 63.9396 189.035C65.7487 190.842 67.1244 193.244 67.8266 196.177C67.8534 196.291 67.846 196.398 67.822 196.502C68.6702 197.768 69.3493 199.26 69.8269 200.962C70.1041 201.026 70.3009 201.179 70.3203 201.442C70.6261 205.498 72.0786 209.513 73.9717 213.338C75.62 209.703 79.0432 206.285 81.8085 203.961C84.1359 202.006 86.8135 200.584 89.5271 200.937C89.4449 197.17 90.5665 193.398 94.0664 191.437C96.9259 189.834 100.058 189.229 103.281 189.085C103.223 189.014 103.157 188.952 103.115 188.86C102.798 188.158 102.813 187.331 102.817 186.566C101.535 186.369 103.06 184.87 104.116 184.87C115.608 184.87 127.1 184.87 138.592 184.87C138.592 134.094 138.592 83.3177 138.592 32.5419C138.592 32.3091 138.754 32.1003 138.997 31.9358C141.097 18.9462 156.515 19.6345 166.97 19.5532C167.156 19.5514 167.313 19.5763 167.452 19.6142L167.461 0H314.207V20.4679C314.258 20.4605 314.307 20.455 314.35 20.455C339.48 20.2711 364.609 19.8073 389.741 19.7833C401.877 19.7722 414.014 19.8424 426.148 20.1057C429.877 20.1861 433.784 20.0291 436.618 22.9219C439.151 25.5071 440.629 28.593 441.386 32.1234C441.453 32.4347 441.014 32.7313 440.474 32.9198C440.474 54.5676 440.474 76.2135 440.474 97.8595C440.474 99.0828 437.759 99.4782 437.759 98.0563C437.759 76.1997 437.759 54.3431 437.759 32.4874C437.759 32.0975 438.035 31.7935 438.41 31.6041C437.465 28.0479 435.613 24.1794 432.257 22.4969C427.268 19.9949 419.328 21.1941 413.856 21.1267C402.449 20.9863 391.042 20.9604 379.635 21.0214C357.825 21.1369 336.016 21.4898 314.207 21.6561V28.9995C351.54 29.103 390.411 29.103 428.006 29.103H428.859L428.927 29.953C429.97 42.9953 429.837 56.4765 429.71 69.5132C429.612 79.536 429.509 89.8989 429.958 99.7914L428.112 99.8746C427.661 89.9321 427.764 79.5434 427.862 69.4956C427.988 56.7832 428.116 43.6476 427.151 30.9509C389.823 30.9509 351.258 30.95 314.207 30.8474V117.501L167.511 117.513L167.542 117.347H167.41L167.455 21.4288C167.258 21.5295 167.026 21.5951 166.759 21.597C157.331 21.669 142.748 20.2933 141.564 32.9457C141.543 33.1711 141.436 33.367 141.279 33.5296C141.279 83.8092 141.279 134.09 141.279 184.37C141.599 184.466 141.827 184.674 141.827 185.035C141.827 189.853 141.827 194.671 141.827 199.49C142.931 196.669 144.391 193.968 146.747 192.435C149.774 190.465 152.658 192.925 152.655 196.134C152.652 198.664 152.052 201.104 151.672 203.592C151.321 205.895 150.992 207.894 153.168 207.029C154.701 182.826 154.194 158.048 153.698 134.081C153.173 108.66 152.63 82.3743 154.528 56.7527C154.525 54.7949 154.416 52.7465 154.3 50.5771C153.945 43.923 153.578 37.0433 156.452 30.5758L156.528 30.439C157.952 28.3029 160.242 28.9986 161.916 29.5077C163.08 29.8616 164.181 30.196 164.951 29.8219L165.759 31.484C164.338 32.1751 162.766 31.6984 161.379 31.2752C159.539 30.7171 158.707 30.5656 158.108 31.4045C155.452 37.4452 155.805 44.0708 156.146 50.4801C156.258 52.5784 156.374 54.7468 156.374 56.822C154.48 82.4252 155.022 108.666 155.547 134.044C156.034 157.62 156.523 181.973 155.084 205.835C159.873 202.253 163.386 197.21 168.451 193.971C168.748 193.643 169.492 193.239 169.985 193.143C170.19 193.093 170.39 193.088 170.572 193.118C172.739 193.102 173.37 194.027 173.224 195.28C174.305 195.029 175.455 194.984 176.062 195.751C176.803 196.688 176.068 198.411 175.485 199.574C175.54 199.581 175.593 199.589 175.642 199.604C178.965 200.663 178.863 203.385 177.457 206.303C177.634 206.274 177.788 206.266 177.889 206.292C183.538 207.766 174.602 217.634 173.007 219.497C171.166 221.648 169.304 223.915 167.151 225.769C162.285 229.961 156.465 232.703 151.387 236.603C151.324 236.652 151.229 236.698 151.112 236.741C151.22 236.858 151.332 236.97 151.439 237.088C151.629 237.294 151.306 237.579 150.833 237.805ZM169.259 115.111L169.825 115.217L169.741 115.665L195.994 115.663C195.739 115.59 195.597 115.441 195.688 115.195C199.345 105.412 205.205 95.6134 213.702 89.6337C213.694 89.5829 213.686 89.5311 213.679 89.4803C213.624 89.1375 214.421 88.8068 215.16 88.6608C218.74 86.4073 222.762 84.8191 227.255 84.1622C229.109 83.8905 228.171 85.452 226.889 85.6405C225.564 85.8345 224.287 86.1292 223.052 86.5099C226.805 95.1357 227.343 104.462 229.617 113.497C229.936 114.763 227.257 115.475 226.94 114.213C224.687 105.259 224.134 96.0199 220.472 87.4569C219.079 88.0538 217.752 88.7726 216.482 89.5847C217.767 97.7773 218.481 106.223 221.179 114.098C221.346 114.585 218.699 115.39 218.502 114.816C215.92 107.283 215.155 99.2306 213.969 91.3744C206.618 97.185 201.553 106.332 198.366 114.859C198.215 115.262 197.582 115.548 196.966 115.661L312.363 115.651V1.84695H169.313L169.259 115.111ZM50.282 123.405C50.2441 123.209 50.2081 123.011 50.1684 122.814C47.2589 124.794 44.3531 126.777 41.4409 128.751L50.282 123.405ZM47.5102 158.369C46.8016 158.531 46.0495 158.67 45.2826 158.771C46.2222 159.032 47.0168 159.185 47.6118 159.268C47.5897 158.97 47.5462 158.669 47.5102 158.369ZM75.3881 134.573C74.7321 132.88 73.8738 131.275 72.8556 129.78C72.6181 129.685 72.4241 129.527 72.3576 129.278C72.3336 129.189 72.329 129.105 72.3363 129.027C71.0826 127.33 69.5997 125.802 67.9172 124.5C67.2094 123.951 66.4666 123.406 65.6397 123.051C65.4198 122.955 65.1971 122.866 64.9643 122.806C64.105 124.606 65.1149 127.369 65.6129 129.114C65.7145 129.471 65.3717 129.797 64.9014 130.012C64.9689 130.07 65.0262 130.138 65.0585 130.224C65.332 130.968 65.6729 131.709 66.0462 132.441C66.1423 132.492 66.2236 132.566 66.2485 132.665C66.2679 132.743 66.2689 132.817 66.2763 132.892C67.9033 135.902 70.3296 138.656 73.2945 140.206C74.1731 140.666 75.9064 141.791 76.276 140.43C76.7943 138.524 76.0774 136.349 75.3881 134.573ZM68.9603 109.971C63.5266 113.7 58.0874 117.421 52.6399 121.131C52.6953 121.381 52.7517 121.631 52.8025 121.882L53.44 121.496C53.44 121.496 53.3781 122.67 53.2709 124.5C54.0304 129.366 54.1062 134.181 53.4724 138.958C55.0551 138.148 56.6627 137.386 58.2731 136.62C59.9297 135.83 61.6048 135.037 63.1774 134.085C63.2208 134.059 63.2578 134.038 63.2993 134.014C62.3394 134.01 62.2119 133.272 63.2097 132.882C62.8974 132.239 62.6184 131.59 62.3809 130.94C62.2544 130.597 62.5999 130.267 63.0804 130.052C63.0148 129.992 62.9612 129.922 62.9353 129.832C62.3893 127.92 60.9627 123.832 62.9279 122.174C64.2935 121.023 66.2097 121.006 67.7721 121.763C70.3656 123.016 72.6828 125.085 74.5436 127.503C75.2745 127.069 75.9628 126.549 76.6945 126.122C73.0977 121.329 71.1694 115.535 68.9603 109.971ZM5.45454 150.698C20.2292 140.751 34.9909 130.785 49.7147 120.764C49.687 120.646 49.663 120.528 49.6343 120.411C49.5401 120.028 50.7283 119.591 51.5543 119.512C59.6091 114.025 67.6557 108.523 75.6782 102.988C75.7096 102.688 75.9609 102.407 76.3028 102.205C76.2973 102.217 76.2991 102.215 76.3056 102.202C76.8119 101.904 77.5021 101.785 77.9419 102.041C77.9483 102.041 77.9548 102.043 77.9603 102.044C76.9837 101.3 76.4516 101.954 76.3268 102.159C76.3647 102.077 76.4414 101.893 76.555 101.552C76.7019 101.122 76.823 100.685 76.9163 100.24C77.066 99.4542 77.2942 98.4998 77.1196 97.7015C76.6326 95.4767 69.9092 101.136 68.7663 101.962C61.7397 107.046 54.7936 112.241 47.7819 117.343C40.358 122.748 32.8779 128.086 25.1907 133.111C20.9166 135.906 16.6055 138.648 12.2113 141.251C10.6101 142.199 9.01077 143.149 7.39388 144.069C4.97502 145.448 -0.0336355 150.773 5.45454 150.698ZM46.9826 166.855C47.0131 166.704 47.0372 166.551 47.0667 166.399L46.9512 166.858C46.9623 166.857 46.9725 166.856 46.9826 166.855ZM116.772 242.684C118.229 241.383 119.621 240.019 120.983 238.624C117.705 238.627 113.668 238.976 110.64 237.439C108.335 236.27 107.243 234.205 106.673 231.899C101.821 233.493 95.1677 232.743 92.1344 228.394C89.3709 224.431 87.9767 218.242 89.4273 213.338C87.9545 213.684 86.5298 213.18 85.6604 211.307C85.1227 210.148 87.7753 209.378 88.337 210.589C89.3719 212.817 91.2862 209.62 91.6983 208.473C92.6962 205.698 91.3056 203.353 88.3213 202.905C85.4849 202.481 82.301 206.301 80.6545 208.181C78.8621 210.228 76.4497 212.804 75.887 215.566C75.8371 215.814 75.6838 216.022 75.4786 216.189C76.8442 218.637 78.3234 220.987 79.7223 223.187C84.0703 230.024 88.8388 236.78 94.4138 242.685C97.0756 245.504 100.272 249.066 104.489 248.977C109.175 248.878 113.417 245.681 116.772 242.684ZM133.572 225.624C133.772 225.442 134.116 225.325 134.486 225.267C134.557 225.23 134.632 225.194 134.71 225.158C134.748 221.311 134.93 217.377 136.188 213.732C137.071 211.17 138.403 208.855 139.417 206.363C139.247 206.244 139.139 206.07 139.139 205.822C139.139 204.592 139.139 203.361 139.139 202.131C138.822 202.043 138.597 201.848 138.597 201.505C138.597 196.532 138.597 191.559 138.597 186.587C127.578 186.587 116.56 186.587 105.543 186.587C105.545 187.118 105.575 187.648 105.798 188.141C106.079 188.764 105.177 189.336 104.717 189.459C104.658 189.475 104.6 189.473 104.542 189.483C104.034 189.796 103.09 190.162 102.763 190.166C99.792 190.199 96.3734 190.589 94.3232 193.013C92.4975 195.171 92.0993 197.858 92.2194 200.612C92.2342 200.945 91.7353 201.217 91.1643 201.379C91.8194 201.648 92.4735 202.024 93.1212 202.547C93.9315 203.2 94.423 203.973 94.6762 204.799C94.618 204.066 94.7833 203.432 95.0993 202.885C95.0993 202.87 95.0947 202.858 95.0966 202.843C95.4042 200.356 95.5049 196.968 97.3574 195.041C99.3208 192.997 102.249 192.97 104.716 194.026C104.932 194.12 104.964 194.245 104.885 194.38C105.109 194.511 105.258 194.721 105.258 195.032C105.258 196.857 105.23 198.675 105.104 200.492C106.553 200.891 107.756 201.788 107.892 203.489C108.025 205.151 107.147 206.403 105.9 207.276C105.957 207.29 106.018 207.295 106.075 207.31C106.108 207.319 106.123 207.341 106.153 207.352C106.382 207.015 106.814 206.728 107.365 206.691C108.659 206.603 110.479 206.688 111.078 208.086C111.544 209.173 110.954 210.419 110.341 211.318C110.003 211.815 109.607 212.279 109.17 212.707C110.448 212.677 111.947 212.83 112.759 213.843C113.427 214.677 113.344 215.817 112.871 216.731C111.44 219.496 108.272 221.119 105.228 221.104C105.09 221.103 104.947 221.098 104.802 221.087C104.691 221.364 104.644 221.661 104.722 221.961C105.047 223.191 106.412 223.962 107.647 223.927C109.817 223.867 112.02 222.253 110.413 220.016C109.931 219.346 112.511 218.487 112.924 219.061C115.873 223.166 108.912 225.472 105.627 225.123C105.592 225.152 105.56 225.18 105.512 225.21C102.434 227.221 98.2259 228.195 97.1921 223.64C96.6608 221.302 96.6478 218.882 96.6266 216.494C96.6109 214.76 96.8391 212.681 96.197 211.03C96.0769 210.724 96.5397 210.39 97.1135 210.184C97.1967 210.049 97.2789 209.915 97.3852 209.778C97.7326 209.326 98.1483 208.952 98.5909 208.614C96.9176 208.266 95.4107 207.411 94.8683 205.734C95.0291 207.495 94.2401 209.38 93.0417 210.848C93.0242 210.9 93.0048 210.953 92.9706 211.012C87.9906 219.656 95.6149 234.712 106.379 230.387C106.295 229.85 106.226 229.308 106.173 228.768C106.106 228.101 108.805 227.602 108.849 228.05C109.149 231.042 109.771 234.825 112.764 236.343C115.544 237.754 118.897 237.627 121.979 237.595C125.816 233.577 129.457 229.367 133.572 225.624ZM105.134 203.787C105.001 203.329 104.79 202.945 104.527 202.625C103.73 203.187 102.17 203.196 102.275 202.199C102.299 201.965 102.313 201.731 102.333 201.498C101.872 201.444 101.389 201.46 100.907 201.555C100.72 201.591 99.78 201.666 99.7957 201.277C97.9608 201.551 96.7892 203.21 97.5561 205.028C98.1188 206.36 99.33 207.214 100.688 207.501C101.695 207.157 102.77 206.99 103.837 207.011C104.871 206.317 105.511 205.091 105.134 203.787ZM104.506 209.042C102.945 208.636 100.575 208.875 99.646 210.435C98.517 212.329 100.808 213.433 102.437 213.62C104.531 213.861 106.575 212.699 107.803 211.034C108.664 209.868 108.952 208.428 107.097 208.552C106.818 208.572 106.601 208.54 106.43 208.479C106.417 208.497 106.415 208.517 106.399 208.535C105.936 209.05 105.157 209.212 104.506 209.042ZM102.359 221.076C102.46 220.902 102.593 220.751 102.723 220.599C101.242 219.978 100.198 218.775 101.245 216.934C101.549 216.402 101.936 215.941 102.367 215.531C101.935 215.523 101.503 215.481 101.077 215.4C100.468 215.284 99.8373 215.086 99.2441 214.82C99.3966 220.075 99.6017 227.438 103.408 224.951C103.551 224.859 103.821 224.78 104.131 224.726C102.635 224.09 101.377 222.766 102.359 221.076ZM110.217 216.597C110.916 215.246 110.157 214.778 109.065 214.697C109.064 214.698 109.064 214.7 109.063 214.702C108.764 215.329 107.962 215.578 107.319 215.523C105.96 215.404 104.303 216.067 103.729 217.396C103.221 218.573 104.205 218.999 105.201 219.111C105.956 218.9 106.752 218.82 107.5 218.836C108.632 218.425 109.686 217.623 110.217 216.597ZM102.566 195.176C102.558 195.172 102.547 195.172 102.54 195.168C101.69 194.803 100.482 194.133 99.8049 194.944C99.2737 195.58 98.9263 196.334 98.6879 197.126C98.3359 198.298 98.1345 199.499 97.97 200.706C98.7258 200.416 99.5204 200.219 100.248 200.11C100.434 200.082 101.377 199.993 101.361 200.387C101.692 200.322 102.054 200.278 102.429 200.253C102.529 198.594 102.551 196.934 102.551 195.27C102.551 195.238 102.561 195.207 102.566 195.176ZM150.285 235.86C156.637 231.224 163.533 227.745 168.848 221.74C170.154 220.262 179.014 210.461 176.62 207.826C174.672 211.019 171.621 214.145 170.163 215.329C169.239 216.08 167.033 215.47 168.445 214.324C170.442 212.704 178.74 203.523 174.513 201.417C172.47 205.152 169.928 208.752 167.2 211.989C166.753 212.519 164.143 212.847 164.756 212.12C166.9 209.575 168.854 206.791 170.607 203.969C171.087 203.196 174.93 196.562 172.895 196.517C172.44 197.669 171.624 198.905 170.894 199.864C168.013 203.646 164.443 206.748 161.387 210.355C160.909 210.918 158.269 211.211 158.929 210.431C161.224 207.722 163.921 205.357 166.234 202.653C167.034 201.717 171.528 196.532 170.512 194.899C164.723 198.229 161.085 204.263 155.491 207.908C155.438 207.943 155.38 207.97 155.32 207.998C155.278 208.025 155.243 208.054 155.195 208.08C153.117 209.25 149.204 210.794 148.725 207.199C148.207 203.313 150.879 199.223 149.83 195.37C148.681 191.147 145.642 197.14 144.977 198.671C143.92 201.107 143.061 203.608 142.175 206.109C141.08 209.2 139.148 211.868 138.427 215.114C137.665 218.551 137.464 221.988 137.415 225.483C142.123 228.439 146.443 231.848 150.285 235.86ZM110.055 166.762C113.245 169.935 119.432 174.321 115.517 179.189C114.436 180.533 116.963 181.096 117.784 180.077C122.272 174.493 116.87 169.679 112.802 165.821C109.494 162.684 108.352 159.905 108.522 155.275C108.707 150.225 110.931 144.298 115.876 142.244C117.564 141.544 116.075 139.943 114.654 140.533C107.902 143.337 104.985 152.036 105.871 158.88C106.316 162.322 107.637 164.356 110.055 166.762ZM121.418 166.762C124.608 169.935 130.794 174.321 126.879 179.189C125.799 180.533 128.326 181.096 129.146 180.077C133.635 174.493 128.233 169.68 124.164 165.821C120.857 162.684 119.715 159.905 119.884 155.275C120.069 150.225 122.293 144.298 127.237 142.244C128.926 141.543 127.437 139.943 126.016 140.533C119.264 143.337 116.347 152.036 117.233 158.88C117.678 162.322 119 164.356 121.418 166.762ZM157.949 237.174L157.629 237.049C157.025 236.813 156.411 236.717 155.829 236.755L156.076 235.516L154.264 235.153L153.784 237.553L151.603 239.035L154.601 239.028C154.79 239.035 154.975 239.039 155.156 239.039C155.357 239.039 155.554 239.034 155.746 239.026C246.759 238.834 338.892 238.834 428.01 238.834H428.676L428.887 238.202C430.027 234.782 429.833 231.104 429.644 227.548C429.514 225.095 429.393 222.778 429.7 220.643L427.87 220.38C427.539 222.694 427.671 225.211 427.8 227.645C427.967 230.801 428.139 234.056 427.327 236.986C339.142 236.987 248.011 236.988 157.949 237.174ZM71.9123 264.49C71.9123 270.032 71.9123 275.575 71.9123 281.117C71.9123 281.553 74.5889 281.167 74.5889 280.399C74.5889 274.858 74.5889 269.315 74.5889 263.772C74.5889 263.337 71.9123 263.722 71.9123 264.49ZM220.303 64.2273C219.612 63.9769 218.862 63.988 218.139 63.988C217.536 63.9871 216.74 64.4482 216.673 65.1005C216.599 65.8119 217.372 66.0327 217.924 66.0327C217.972 66.0327 218.334 66.041 218.349 66.0383C218.428 66.0438 218.507 66.0512 218.585 66.0604C218.588 66.0604 218.76 66.1029 218.814 66.1131C219.273 66.2683 219.666 66.6675 220.02 67.0121C220.912 67.8843 223.206 66.5307 222.072 65.422C221.552 64.9147 220.993 64.4796 220.303 64.2273ZM194.519 38.9485C196.662 35.0504 201.648 33.014 206.535 31.594C204.41 30.3596 202.633 28.3796 203.161 25.714C203.746 22.7519 205.717 20.5363 208.538 19.5431C212.419 18.1784 217.144 18.4695 221.522 19.3537C221.529 19.1855 221.587 18.998 221.729 18.7864C229.148 7.73056 243.656 15.7032 253.941 12.9175C258.487 11.6868 265.777 9.59413 268.361 15.2468C270.262 19.3999 269.162 23.7775 266.301 26.9466C266.324 27.0316 266.349 27.1147 266.372 27.1951C273.349 28.5404 271.922 35.9863 268.72 41.5364C268.727 41.554 268.734 41.5688 268.741 41.5863C278.962 46.0009 277.14 61.4777 267.464 65.859C266.706 66.2018 265.935 65.9015 265.637 65.434C265.216 67.2625 264.432 68.9921 263.077 70.5221C258.099 76.1479 246.089 76.2875 246.042 84.4865C249.408 84.4319 252.739 85.0094 255.895 86.1228C256.598 85.9444 257.34 85.9842 257.345 86.3519C257.346 86.46 257.351 86.5699 257.352 86.679C267.99 91.0482 276.306 101.407 276.645 113.115C276.678 114.229 273.981 114.696 273.942 113.351C273.714 105.475 269.495 98.0406 263.371 92.971C263.317 100.016 262.85 107.091 263.975 114.079C264.142 115.119 261.454 115.762 261.298 114.797C260.13 107.546 260.654 100.203 260.693 92.8952C260.695 92.424 261.388 92.0507 262.07 91.9482C260.603 90.8607 259.044 89.9063 257.416 89.1061C257.716 97.3458 258.71 105.647 256.133 113.642C255.87 114.457 253.213 114.823 253.469 114.028C256.208 105.534 254.864 96.6815 254.684 87.9355C251.966 86.9358 249.108 86.3768 246.215 86.3408C246.287 86.7325 246.375 87.1335 246.494 87.5576C246.514 87.6278 246.481 87.7017 246.413 87.7757C247.19 87.6602 247.951 87.8662 247.614 88.5721C244.809 94.4686 236.876 93.0042 231.645 89.9016C231.138 89.9506 230.678 89.8397 230.556 89.4803C230.517 89.3667 230.49 89.2493 230.454 89.1348C229.594 88.5333 228.839 87.893 228.244 87.2472C227.723 86.6817 228.808 86.0294 229.741 85.9324C229.423 84.043 229.163 82.135 228.433 80.3943C226.779 76.4445 224.423 75.9752 220.686 75.1852C220.047 75.0503 219.402 74.8507 218.764 74.6013C219.091 75.0254 219.285 75.2979 219.285 75.2979C219.285 75.2979 217.863 75.2979 215.912 75.2342C215.672 75.4689 215.329 75.6416 214.904 75.6629C208.944 75.9595 201.733 74.3213 199.51 67.9573C197.788 63.0253 199.112 58.0961 201.806 53.9245C195.671 52.4 191.174 45.0354 194.519 38.9485ZM258.416 38.5549C258.454 38.5558 258.492 38.5577 258.53 38.5595C258.52 38.529 258.513 38.5004 258.506 38.469C258.476 38.4985 258.447 38.5262 258.416 38.5549ZM252.549 32.3359C252.549 32.3359 250.47 32.6805 247.59 32.8431C249.304 32.893 250.998 32.8487 252.625 32.6251C252.577 32.444 252.549 32.3359 252.549 32.3359ZM258.703 39.1712C258.178 39.4548 257.527 39.6211 256.94 39.6137C256.909 39.6128 256.876 39.6109 256.844 39.6109C256.341 39.8031 255.839 39.8188 255.411 39.4973C254.316 39.3384 253.236 38.979 252.481 38.1807C251.391 37.0295 251.072 35.5733 251.049 34.0239C251.048 33.9306 251.093 33.8437 251.169 33.7624C251.07 33.7754 250.97 33.7883 250.871 33.8003C247.829 34.156 244.715 34.0932 241.661 33.9112C239.745 33.7966 236.608 33.0242 234.028 33.0224C232.709 33.2367 231.693 33.5047 230.915 33.7005C227.143 35.8293 225.207 39.1037 222.073 41.9198C221.572 42.3707 219.889 42.9741 220.453 44.0782C221.253 45.6442 222.189 47.0773 223.234 48.4937C226.896 53.4552 226.448 56.8876 222.873 61.9471C222.458 62.5347 219.82 62.8913 220.421 62.0432C220.559 61.8482 220.694 61.6514 220.829 61.4537C220.664 61.4352 220.516 61.3936 220.404 61.3142C218.546 59.9911 216.987 59.9735 215.884 60.6905C215.17 61.6745 214.537 63.0881 214.141 64.5535C214.145 65.3582 214.292 66.2083 214.612 67.0472C216.194 71.1993 219.686 73.4251 224.004 73.9102C231.515 74.7528 231.324 82.4104 233.032 88.1027C236.862 90.7313 243.012 92.8693 245.108 88.4631C245.13 88.4178 245.161 88.3753 245.194 88.3337C244.55 88.4982 243.892 88.5342 243.818 88.2728C243.634 87.6195 243.506 87.0042 243.43 86.423C242.375 86.3251 242.56 85.3088 243.348 84.8255C243.612 77.7085 252.765 76.5388 258.301 72.7534C268.43 65.8276 261.556 49.1496 258.703 39.1712ZM267.43 29.7987C268.158 31.4369 269.228 34.4129 268.257 36.0316C267.886 36.6506 267.784 37.4009 267.828 38.1687C269.019 34.9506 269.303 31.6836 267.43 29.7987ZM262.972 13.786C264.118 14.5326 265.212 15.6709 266.037 16.8627C265.529 15.4436 264.535 14.3108 262.972 13.786ZM248.514 15.4057C245.223 15.2643 241.256 14.6185 237.38 14.5002C243.008 15.1978 249.315 16.1679 249.315 16.1679C249.315 16.1679 250.118 15.791 251.328 15.2939C250.413 15.3965 249.481 15.4473 248.514 15.4057ZM223.979 19.6105C223.957 19.6438 223.927 19.6715 223.901 19.7029C224.537 19.7907 224.832 19.8627 224.832 19.8627C224.832 19.8627 225.188 18.7965 225.782 17.5603C225.12 18.1396 224.514 18.8141 223.979 19.6105ZM206.749 22.8129C208.55 21.9083 210.854 20.9918 213.092 20.3367C212.975 20.3395 212.856 20.3349 212.739 20.3395C210.536 20.4217 208.052 21.0934 206.749 22.8129ZM209.588 30.7652C209.638 30.7513 209.687 30.7393 209.737 30.7264C209.05 30.3328 208.158 29.8015 207.258 29.2074C207.891 29.8459 208.692 30.354 209.588 30.7652ZM250.546 56.5005C251.419 57.587 252.268 58.8916 252.246 60.3431C252.219 62.0395 250.696 62.3869 249.287 62.4146C248.671 62.4266 247.885 62.6003 247.523 63.1574C247.181 63.6804 247.809 63.9991 248.26 63.9899C250.512 63.9446 253.187 63.5141 254.492 61.4454C255.74 59.4682 254.276 56.9865 253.028 55.4352C252.425 54.6868 249.85 55.6375 250.546 56.5005ZM239.007 66.5215C237.506 66.4928 236.05 66.0983 234.934 65.045C234.122 64.2791 231.589 65.3481 232.471 66.1805C233.995 67.6191 235.961 68.2806 238.041 68.3222C238.676 68.3352 239.464 68.1439 239.793 67.5332C240.092 66.976 239.536 66.5326 239.007 66.5215ZM234.172 49.4998C234.173 51.2276 234.249 52.8602 234.776 54.5196C235.085 55.4888 237.751 54.7367 237.453 53.8017C236.966 52.2725 236.853 50.7748 236.852 49.1774C236.851 48.0261 234.171 48.5944 234.172 49.4998ZM256.724 49.7031C256.881 49.17 254.281 49.5081 254.085 50.1798C253.533 52.0536 254.017 53.8054 255.347 55.2162C255.81 55.7087 258.275 54.7385 257.869 54.3089C256.683 53.0486 256.233 51.3717 256.724 49.7031ZM237.066 38.7406C233.789 39.4372 230.705 40.6993 227.985 42.6682C226.512 43.7345 228.677 44.7499 229.778 43.9534C232.12 42.2571 234.761 41.2454 237.576 40.6467C239.267 40.2863 238.731 38.3867 237.066 38.7406ZM249.785 41.4948C250.635 40.9811 252.179 42.0584 252.931 42.5435C253.342 42.8096 254.244 42.4853 254.643 42.3467C254.742 42.3116 255.829 41.9023 255.463 41.6667C252.993 40.0747 250.315 39.9648 247.76 41.5078C247.34 41.7609 247.381 42.0049 247.892 42.0021C248.515 41.9975 249.249 41.8182 249.785 41.4948ZM374.86 161.293C373.181 161.062 371.465 160.412 371.446 158.453C371.428 156.771 372.547 155.192 373.553 153.946C373.972 153.428 373.201 153.12 372.813 153.106C372.156 153.081 371.467 153.335 371.05 153.851C369.741 155.472 368.591 157.414 368.798 159.569C369.004 161.729 371.434 162.554 373.237 162.802C373.894 162.892 374.627 162.761 375.13 162.295C375.519 161.932 375.45 161.374 374.86 161.293ZM383.538 153.152C383.539 153.136 383.569 153.028 383.577 152.979C383.617 152.929 383.67 152.857 383.688 152.837C383.913 152.59 384.095 152.33 384.121 151.986C384.203 150.867 381.509 151.39 381.442 152.313C381.441 152.329 381.409 152.438 381.403 152.487C381.363 152.537 381.309 152.608 381.292 152.628C381.066 152.876 380.884 153.135 380.859 153.478C380.776 154.596 383.471 154.074 383.538 153.152ZM384.447 144.527C385.144 145.175 387.662 144.156 386.932 143.474C384.54 141.247 381.115 141.614 378.795 143.775C378.384 144.158 378.488 144.614 379.05 144.732C379.669 144.861 380.478 144.659 380.944 144.224C382.157 143.096 383.297 143.454 384.447 144.527ZM386.434 162.386C385.826 162.452 385.145 162.745 384.929 163.356C384.764 163.819 384.528 164.229 384.172 164.564C384.154 164.575 384.127 164.594 384.075 164.632C384.201 164.547 384.104 164.6 384.016 164.651C383.995 164.649 383.897 164.678 383.896 164.689C383.796 164.698 383.695 164.708 383.864 164.706C383.239 164.718 382.458 164.883 382.106 165.468C381.784 166.002 382.376 166.384 382.863 166.375C385.111 166.334 386.86 165.208 387.618 163.068C387.835 162.452 386.767 162.35 386.434 162.386ZM402.286 161.429C403.063 161.429 403.84 161.429 404.616 161.429C405.259 161.429 405.959 161.266 406.509 160.921C406.926 160.658 406.875 160.335 406.352 160.335C405.576 160.335 404.799 160.335 404.023 160.335C403.379 160.335 402.679 160.498 402.129 160.843C401.712 161.106 401.764 161.429 402.286 161.429ZM472.769 218.666L440.181 218.669C440.195 218.732 440.204 218.8 440.202 218.874C439.979 228.301 443.178 246.808 429.951 248.492C429.606 248.536 429.349 248.502 429.167 248.415C429.085 248.43 429.004 248.44 428.928 248.44C398.058 248.44 367.188 248.44 336.318 248.44V283.53H248.012V248.44C213.971 248.44 179.929 248.44 145.889 248.44C144.077 248.44 145.836 246.819 146.903 246.819C180.607 246.819 214.31 246.819 248.012 246.819V246.766H336.318V246.819C367.377 246.819 398.437 246.819 429.497 246.819C429.697 246.692 429.933 246.599 430.199 246.565C437.159 245.68 437.03 237.633 437.223 232.331C437.384 227.918 437.389 223.502 437.492 219.087C437.496 218.934 437.546 218.795 437.627 218.67L326.067 218.68L326.099 218.514H325.969L326.024 101.165H472.769V218.666ZM334.471 248.614H249.86V281.681H334.471V248.614ZM404.998 166.306C407.866 164.872 411.831 163.713 412.607 161.757C411.349 162.815 409.838 163.583 408.36 164.283C407.309 164.782 406.046 165.175 405.093 165.85C404.806 166.053 404.571 166.335 404.373 166.664C404.566 166.539 404.773 166.419 404.998 166.306ZM405.23 156.19C405.741 156.204 406.256 156.202 406.777 156.179C406.752 156.17 406.725 156.16 406.7 156.151C406.464 156.161 405.932 156.181 405.23 156.19ZM390.931 184.922C395.155 187.436 400.176 189.052 403.593 184.294C401.905 181.013 400.89 177.149 400.825 173.566C400.783 171.322 400.744 167.135 403.055 165.812C405.326 164.512 408.035 163.798 410.07 162.109C412.506 160.087 411.343 158.544 409.46 157.425C409.27 157.529 409.053 157.608 408.818 157.638C403.042 158.387 395.966 157.793 392.293 152.56C389.025 147.904 388.739 142.339 389.721 136.941C383.99 139.93 376.925 138.731 370.526 138.023C370.322 139.51 369.991 141.273 369.606 143.215C369.885 143.131 370.181 143.089 370.455 143.09C371.431 143.092 372.233 143.341 372.952 144.012C373.446 144.47 372.658 145.134 372.296 145.301C371.713 145.572 370.982 145.609 370.491 145.153C370.158 144.843 369.964 144.91 369.495 144.909C369.42 144.909 369.346 144.898 369.274 144.881C368.761 147.442 368.206 150.231 367.764 153.041C367.979 152.713 368.053 152.362 368.053 151.927C368.055 151.343 368.734 151.055 369.22 150.925C369.468 150.858 370.732 150.659 370.731 151.209C370.729 152.022 370.631 152.71 370.053 153.331C369.602 153.813 368.944 154.061 368.283 154.051C368.118 154.05 367.832 153.985 367.638 153.861C366.224 163.374 366.309 172.877 374.102 174.204C378.734 174.993 383.879 173.162 388.389 174.594C393.08 176.083 392.272 180.737 391.113 184.616C391.078 184.726 391.014 184.828 390.931 184.922ZM439.502 196.825C440.692 195.06 441.692 193.19 442.459 191.246C441.406 193.28 440.309 195.329 439.502 196.825ZM365.3 196.391C361.013 202.928 357.64 209.918 354.031 216.828L448.615 216.819C448.561 216.785 448.515 216.746 448.48 216.697C445.714 212.843 442.392 207.105 438.533 201.417C437.744 202.115 435.313 201.909 436.403 200.738C436.723 200.393 437.029 200.036 437.334 199.678C432.18 192.329 426.125 185.404 419.214 183.143C416.171 182.731 412.688 182.876 409.877 183.141C408.858 183.475 407.824 183.924 406.776 184.501C406.978 184.856 407.181 185.213 407.406 185.557C407.595 185.845 405.147 186.912 404.728 186.273C404.665 186.176 404.608 186.068 404.546 185.969C399.743 190.517 392.788 188.756 387.354 185.244C386.988 185.008 387.785 184.495 388.607 184.262C388.663 184.074 388.719 183.876 388.779 183.669C388.752 183.659 388.721 183.651 388.698 183.638C385.375 181.713 382.224 181.649 379.316 182.691C378.873 182.87 378.431 183.056 377.993 183.244C372.732 185.776 368.347 191.743 365.3 196.391ZM470.921 103.012H327.872L327.818 216.277L328.386 216.385L328.301 216.83L351.53 216.828C354.855 210.396 360.096 198.705 366.946 190.25C366.912 190.234 366.864 190.211 366.819 190.191C343.3 186.136 350.613 157.104 363.063 144.884C363.268 144.682 363.636 144.552 364.027 144.494C363.934 144.345 363.806 144.201 363.651 144.066C363.318 144.613 362.28 145.102 361.622 144.86C355.932 142.762 346.832 138.467 348.23 130.857C349.4 124.482 355.587 119.916 360.955 117.073C371.293 111.597 392.751 106.658 396.815 122.289C401.632 120.66 406.838 120.215 411.473 121.658C412.72 121.95 413.873 122.424 414.854 123.138C416.614 124.142 418.244 125.476 419.661 127.226C425.485 134.409 426.964 144.786 423.72 153.439C423.787 153.77 423.85 154.009 423.892 154.145C426.094 154.792 436.004 160.814 436.883 161.585C440.7 164.94 443.981 169.148 445.564 174.04C448.557 183.279 446.078 192.265 440.177 199.531C444.233 205.275 447.796 211.245 450.972 215.67C451.3 216.128 450.676 216.599 449.96 216.819L470.922 216.817L470.921 103.012ZM305.544 159.767C305.546 161.361 305.543 162.953 305.544 164.548C305.546 171.256 305.551 177.964 305.546 184.671C305.538 193.66 308.202 211.716 295.41 212.774C290.413 213.187 285.267 212.805 280.262 212.761C274.896 212.714 269.532 212.668 264.166 212.622C263.571 212.617 262.985 212.602 262.402 212.584C260.637 212.6 258.871 212.611 257.106 212.618C255.78 212.74 254.466 212.995 253.147 213.503C242.801 217.486 232.66 222.055 222.53 226.555C222.058 226.765 220.069 226.879 220.713 225.817C222.857 222.281 226.741 217.127 226.854 212.893C226.856 212.821 226.768 212.756 226.618 212.696C220.099 212.641 213.482 213.802 207.015 212.808C204.323 212.394 201.563 211.801 199.181 210.416C195.813 208.458 195.685 207.988 195.385 204.143C195.22 202.024 195.098 199.903 195.004 197.783C194.858 197.754 194.766 197.7 194.766 197.617C194.765 189.745 194.758 181.874 194.759 174.002C194.759 167.105 194.755 160.207 194.776 153.309C194.78 152.048 194.746 150.673 194.748 149.259C194.748 149.247 194.748 149.237 194.748 149.226C194.748 149.219 194.749 149.215 194.748 149.208C194.761 144.992 195.112 140.433 197.807 137.477C203.098 131.675 215.383 133.854 222.437 133.896C226.009 133.917 229.58 133.943 233.151 133.965C253.227 133.766 273.303 133.772 293.378 133.506C300.431 133.412 304.693 137.644 305.303 145.316C305.393 146.451 305.45 147.59 305.49 148.729C305.522 148.806 305.544 148.891 305.544 148.99C305.544 149.762 305.544 150.535 305.544 151.307C305.578 154.129 305.542 156.953 305.544 159.767ZM302.825 196.789C302.844 194.519 302.851 192.25 302.854 189.98C302.854 189.639 302.854 189.298 302.854 188.957C302.854 188.7 302.855 188.442 302.855 188.185C302.855 186.227 302.854 184.271 302.855 182.314C302.86 172.774 302.854 163.234 302.851 153.693C302.841 152.422 302.839 151.15 302.825 149.878C302.745 142.656 301.286 136.231 293.89 135.337C293.316 135.642 292.384 135.952 292.018 135.879C290.858 135.645 289.414 135.73 288.19 135.696C282.688 135.541 277.185 135.433 271.68 135.345C259.92 135.417 248.16 135.496 236.4 135.612C229.82 135.677 223.24 135.745 216.661 135.864C213.941 135.914 209.409 135.726 207.392 136.133C206.105 136.391 205.571 135.489 206.215 134.928C200.802 135.063 198.615 138.582 197.935 143.257C197.66 145.148 197.522 147.065 197.454 148.988C197.455 149.005 197.461 149.018 197.461 149.035C198.168 165.43 196.974 181.844 197.765 198.231C197.872 200.438 197.135 206.128 199.075 207.471C200.387 208.378 201.753 209.23 203.282 209.729C204.395 210.092 205.522 210.374 206.658 210.589C207.1 210.339 207.624 210.172 207.982 210.23C211.79 210.859 215.997 210.503 219.839 210.562C221.354 210.585 226.271 209.682 228.479 210.726C228.707 210.734 228.935 210.735 229.163 210.745C230.312 210.795 230.167 211.604 229.571 212.175C229.822 214.491 227.787 217.706 226.815 219.58C226.059 221.037 225.263 222.474 224.447 223.898C233.378 219.922 242.331 215.929 251.451 212.419C257.841 209.959 264.42 210.911 271.213 210.97C272.849 210.985 274.483 210.997 276.119 211.011C281.967 210.868 287.814 210.66 293.658 210.351C294.674 210.297 294.474 210.728 293.95 211.12C297.387 210.908 300.467 209.775 301.624 205.98C302.531 203.001 302.797 199.893 302.825 196.789ZM219.201 172.312C217.16 172.312 215.506 173.967 215.506 176.008C215.506 178.049 217.16 179.703 219.201 179.703C221.242 179.703 222.897 178.049 222.897 176.008C222.897 173.967 221.242 172.312 219.201 172.312ZM239.528 172.312C237.487 172.312 235.832 173.967 235.832 176.008C235.832 178.049 237.487 179.703 239.528 179.703C241.569 179.703 243.224 178.049 243.224 176.008C243.224 173.967 241.569 172.312 239.528 172.312ZM259.855 172.312C257.814 172.312 256.159 173.967 256.159 176.008C256.159 178.049 257.814 179.703 259.855 179.703C261.895 179.703 263.55 178.049 263.55 176.008C263.55 173.967 261.895 172.312 259.855 172.312ZM280.181 172.312C278.14 172.312 276.485 173.967 276.485 176.008C276.485 178.049 278.14 179.703 280.181 179.703C282.222 179.703 283.877 178.049 283.877 176.008C283.877 173.967 282.222 172.312 280.181 172.312Z" fill="#003049"/>
<path d="M447.961 216.661L351.872 217.585C351.872 217.585 371.274 187.095 375.894 182.475C380.514 177.856 384.671 181.089 384.671 181.089L390.061 185.557C390.061 185.557 397.145 188.019 401.764 187.095C406.384 186.171 408.232 182.475 408.232 182.475C408.232 182.475 423.015 182.475 430.406 188.019C437.798 193.563 447.961 216.661 447.961 216.661ZM245.619 86.3861C245.619 86.3861 248.391 91.9297 241.924 92.8536C235.456 93.7775 232.684 88.2339 232.684 88.2339L230.836 83.6143L222.521 84.5382L228.988 114.104L252.087 115.952L254.859 103.941L253.935 88.2339L245.619 86.3861ZM262.25 90.0818L263.174 114.104L275.185 116.876C275.185 116.876 277.033 117.8 272.413 105.789C269.679 98.6781 262.25 90.0818 262.25 90.0818ZM45.1254 189.867C48.8212 185.247 59.9084 186.171 59.9084 186.171L62.6802 178.78L46.0494 170.464L44.2015 180.627C44.2015 180.627 39.5818 181.551 34.0382 183.399C28.4946 185.247 22.027 196.334 11.8638 227.748C1.70047 259.162 2.62441 286.88 2.62441 286.88H14.6356C14.6356 286.88 18.3313 261.01 22.951 238.835C27.5707 216.661 41.4297 194.486 45.1254 189.867ZM102.409 249.923C93.17 244.379 70.0717 209.269 70.0717 209.269L63.6041 196.334C63.6041 196.334 60.8323 188.943 53.4408 193.563C46.0494 198.182 35.8861 218.509 31.2664 234.216C26.6467 249.923 21.1031 286.88 21.1031 286.88H73.7674V261.934C73.7674 261.934 89.4743 274.869 103.333 274.869C117.192 274.869 134.747 258.238 134.747 258.238L148.606 237.911L133.823 224.976C133.823 224.976 111.649 255.466 102.409 249.923ZM204.966 100.245C200.346 107.637 198.499 115.028 198.499 115.028H218.825L214.206 89.1579C214.206 89.1579 209.586 92.8536 204.966 100.245Z" fill="#FBC02D"/>
</svg>
