<svg width="367" height="301" viewBox="0 0 367 301" fill="none" xmlns="http://www.w3.org/2000/svg">
<path d="M265.481 278.093C264.099 279 262.249 279.14 260.274 279.073C262.609 278.645 264.518 278.188 264.518 278.188L264.8 277.434C265.012 277.681 265.412 277.772 265.828 277.729C265.682 277.84 265.562 277.965 265.481 278.093ZM359.431 240.676C353.824 217.787 348.116 194.95 343.639 171.799C341.921 162.919 338.137 153.397 330.188 148.311C322.135 143.158 312.537 143.062 303.364 144.463C303.345 144.465 303.331 144.465 303.312 144.467C303.061 144.578 302.788 144.639 302.531 144.608C297.314 143.984 292.961 140.236 289.697 135.55C285.044 142.019 274.351 148.113 267.953 141.737C264.684 147.654 259.947 152.73 253.996 155.824C250.998 157.556 246.92 159.339 242.792 159.339C242.011 159.339 241.246 159.274 240.517 159.144C240.484 159.138 240.453 159.131 240.421 159.126C235.981 159.162 231.593 158.223 227.647 156.203C217.199 168.093 217.921 185.086 217.728 200.019C217.596 210.152 218.317 220.395 217.064 230.482C215.973 239.284 213.877 247.916 212.724 256.708C217.648 255.398 222.745 254.791 228.139 255.354C229.406 255.486 227.04 256.442 226.501 256.386C221.494 255.863 216.805 256.455 212.287 257.703C211.988 257.867 211.549 257.976 211.141 258.032C206.032 259.577 201.131 261.931 196.236 264.46C195.808 264.779 195.453 265.059 195.165 265.292C195.241 265.299 195.312 265.311 195.373 265.335C195.421 265.353 195.463 265.377 195.511 265.396C195.774 265.396 196.038 265.395 196.301 265.395C197.121 265.395 197.129 265.714 196.82 266.045C200.861 268.454 201.859 273.447 201.485 278.041C201.435 278.654 200.236 279.071 199.505 278.931C199.205 279.109 198.904 279.269 198.6 279.414C198.041 279.975 197.289 280.328 196.52 280.54C200.275 280.961 204.062 281.346 207.745 282.165C208.023 281.197 208.428 280.244 208.747 279.505C211.873 272.278 216.935 265.876 225.385 265.63C225.984 265.613 226.096 265.739 225.97 265.905C225.978 265.907 225.988 265.908 225.996 265.908C230.453 262.407 235.829 261.642 240.961 264.326C244.203 256.054 241.795 248.003 237.59 240.428C233.957 233.885 228.419 227.041 227.263 219.459C224.908 204.014 239.488 193.526 239.871 178.628C239.893 177.739 242.414 177.327 242.397 177.951C242.007 193.125 225.051 205.46 230.352 221.17C235.223 235.606 250.192 248.279 243.226 264.582C249.021 262.098 256.015 262.508 262.384 262.604C262.488 262.532 262.602 262.468 262.723 262.418C262.912 262.065 263.354 261.756 263.939 261.748C281.376 261.524 299.905 252.374 317.66 252.178C314.654 244.618 314.416 236.565 312.432 228.729C310.244 220.093 307.644 211.488 307.473 202.515C307.455 201.565 309.986 201.083 309.999 201.838C310.171 210.899 313.033 219.295 314.959 228.052C316.74 236.155 317.211 244.523 320.481 252.23C326.217 252.491 331.862 253.785 337.351 256.748C338.535 257.387 336.274 258.611 335.384 258.131C313.244 246.177 287.621 262.71 264.575 263.424C266.514 267.59 267.84 272.056 267.216 276.691C267.183 276.939 267.046 277.145 266.854 277.311C267.039 277.292 267.218 277.303 267.377 277.361C275.202 280.264 283.129 282.99 291.157 285.273C300.705 287.988 310.641 289.847 320.377 291.775C324.39 292.569 328.761 293.423 333.18 293.87C338.085 293.778 344.843 293.348 351.343 291.934C351.842 291.723 352.34 291.506 352.824 291.258C370.61 282.17 363.17 255.934 359.431 240.676ZM255.996 280.536C254.039 280.43 251.635 280.647 251.138 282.983C251.02 283.534 250.855 284.088 250.572 284.581L260.228 285.183C264.665 285.273 269.104 285.37 273.542 285.382C274.377 285.384 274.325 285.676 273.965 285.971L287.068 285.83C280.124 283.887 273.24 281.713 266.365 279.179C263.154 280.899 259.723 280.736 255.996 280.536ZM281.075 141.267C279.456 141.918 277.497 142.519 275.397 142.752C274.966 142.8 274.564 142.808 274.175 142.799C276.435 143.206 278.844 142.535 281.075 141.267Z" fill="#FBC02D"/>
<path d="M251.267 109.978C249.203 111.191 247.013 111.897 244.602 111.567C242.901 111.333 244.193 109.511 245.465 109.685C247.216 109.926 248.65 109.31 250.134 108.438C251.396 107.698 252.742 109.112 251.267 109.978ZM257.286 90.6603C257.653 89.1721 257.959 87.6585 258.623 86.267C259.2 85.0568 256.655 85.2296 256.24 86.0988C255.51 87.6307 255.148 89.2784 254.744 90.9166C254.477 92.0003 257.044 91.6403 257.286 90.6603ZM235.166 88.3577C235.532 86.8685 235.839 85.356 236.503 83.9645C237.08 82.7544 234.535 82.9269 234.12 83.7961C233.39 85.328 233.026 86.9751 232.624 88.6142C232.358 89.6987 234.925 89.3385 235.166 88.3577ZM253.345 77.9398C255.12 77.3914 256.892 77.3714 258.549 78.2825C259.255 78.6705 261.589 77.6416 260.566 77.0784C258.258 75.8098 255.466 75.9546 253.017 76.7123C252.673 76.8187 251.777 77.1369 251.918 77.6644C252.054 78.1744 253.002 78.0462 253.345 77.9398ZM235.262 73.8142C234.703 73.8029 233.939 74.0165 233.59 74.4881C233.23 74.9738 233.895 75.1647 234.259 75.1716C235.068 75.1882 235.761 75.605 236.42 76.0392C236.909 76.3618 237.568 76.2449 238.083 76.0339C238.269 75.9581 239.253 75.3915 238.771 75.0741C237.659 74.34 236.616 73.8413 235.262 73.8142ZM361.902 286.586C349.524 301.367 326.209 295.1 310.288 291.571C302.426 289.828 294.711 287.967 287.068 285.829C280.124 283.886 273.24 281.712 266.365 279.178C263.153 280.898 259.723 280.735 255.995 280.535C254.038 280.429 251.635 280.646 251.137 282.982C251.019 283.533 250.854 284.087 250.571 284.58C250.546 284.624 250.526 284.67 250.499 284.712C250.428 284.824 250.347 284.929 250.272 285.038C253.591 285.056 256.908 285.115 260.227 285.182C264.664 285.273 269.103 285.369 273.541 285.382C274.376 285.383 274.324 285.675 273.964 285.97C273.961 285.973 273.958 285.975 273.955 285.978C274.159 286.109 274.296 286.311 274.296 286.606C274.296 289.552 274.296 292.496 274.296 295.441C274.296 295.724 274.124 295.962 273.87 296.135C275.007 296.15 272.663 297.082 272.188 297.081C221.512 297.071 170.84 296.057 120.164 296.023C119.462 296.542 117.984 296.595 117.984 295.669C117.984 292.598 117.984 289.526 117.984 286.456C117.984 285.529 120.182 285.063 120.489 285.98C127.269 285.98 134.049 285.983 140.829 285.984C139.303 284.612 140.644 281.372 141.452 279.503C144.467 272.533 149.292 266.348 157.21 265.696C157.495 265.552 157.8 265.453 158.042 265.453C169.479 265.451 180.916 265.412 192.353 265.4C192.416 265.359 192.492 265.315 192.583 265.268C198.361 262.243 204.157 259.357 210.192 257.444C211.488 247.558 214.148 237.844 214.859 227.883C215.589 217.638 215.138 207.328 215.249 197.065C215.407 182.545 215.576 166.708 226.204 155.52C226.224 155.498 226.254 155.476 226.285 155.455C224.949 154.664 223.669 153.75 222.469 152.69C218.316 149.017 214.585 144.057 212.931 138.706C212.41 137.021 212.115 135.278 211.961 133.512C211.47 131.142 211.382 129.013 211.842 127.49C211.878 127.373 211.914 127.243 211.951 127.106C212.042 125.827 212.172 124.557 212.322 123.309C212.961 117.986 213.964 112.719 215.182 107.499C215.263 106.9 215.31 106.537 215.314 106.514L215.73 105.237C216.904 100.46 218.237 95.7205 219.643 91.0177C219.647 91.0081 219.655 90.9986 219.659 90.989C218.805 88.8686 219.099 86.0891 219.227 83.8066C219.353 81.5363 219.506 79.5545 221.821 78.4498C222.289 78.2266 222.761 78.0506 223.235 77.8945C227.105 70.0617 223.881 60.7546 227.7 52.8634C228.359 51.5024 229.107 50.2017 229.933 48.9662C229.867 48.7674 229.911 48.5208 230.14 48.2287C242.293 32.7009 264.804 27.2508 283.106 33.6529C282.064 30.9693 282.287 28.4741 283.383 26.3781C283.549 25.8201 283.879 25.3302 284.352 24.8951C286.193 22.5873 289.189 20.9569 292.604 20.3937C301.253 18.9682 307.51 20.2063 313.707 26.658C316.909 29.992 320.484 34.162 322.406 38.7515C322.614 39.1996 322.804 39.6469 322.963 40.0925C323.15 40.6138 323.278 41.1344 323.368 41.6523C323.594 42.5904 323.749 43.5397 323.795 44.5005C324.116 51.0272 319.491 54.7396 313.973 56.942C320.567 64.358 318.663 74.3086 320.683 83.7691C323.064 94.9263 332.856 100.657 340.549 108.017C348.111 115.251 352.919 127.101 350.293 137.637C348.639 144.285 344.141 149.631 336.997 150.143C336.664 150.167 336.419 150.118 336.246 150.023L335.96 150.083C341.178 155.224 344.449 162.257 345.842 169.453C350.36 192.812 356.043 215.865 361.702 238.96C363.849 247.723 365.846 256.668 366.298 265.706C366.641 272.527 366.561 281.022 361.902 286.586ZM250.064 81.9547C253.826 78.7524 259.716 80.592 264.503 81.6818C263.329 80.2119 262.153 78.7394 260.938 77.3008C255.703 71.0975 249.089 62.8654 248.736 54.336L248.46 54.3753C246.255 58.4626 243.276 62.0266 243.107 66.8881C243.079 67.685 240.55 68.2238 240.585 67.2221C240.761 62.1653 243.921 58.4739 246.197 54.207C246.13 54.2227 246.058 54.2437 245.985 54.2664C245.057 55.0196 244.092 55.7275 243.129 56.4311C241.583 57.8549 239.427 59.6021 237.808 60.8794C237.13 61.617 236.507 62.4147 235.969 63.3057C235.858 63.4888 235.672 63.6353 235.45 63.7434C234.994 68.4767 233.899 73.1116 232.697 77.7255C234.384 78.0158 236.067 78.3723 237.728 78.6469C238.394 78.2511 239.817 77.9923 239.923 78.4073C239.968 78.5869 239.987 78.783 240.017 78.973C240.258 79.0358 240.232 79.1553 240.071 79.2904C240.314 81.4544 239.713 84.1422 239.302 86.3149C242.117 85.4622 244.967 86.1485 247.474 87.8904C247.806 85.6498 248.452 83.3262 250.064 81.9547ZM249.853 93.7502C250.383 95.6648 252.611 96.2193 254.363 96.4626C258.236 97.0005 266.073 97.8906 266.997 92.6716C267.55 89.5451 266.736 86.1328 265.463 83.205C261.395 82.5625 252.716 78.9939 251.005 83.7621C249.939 86.7334 248.988 90.6254 249.853 93.7502ZM229.973 88.3883C229.586 90.0972 229.204 91.8975 228.876 93.7493C229.744 93.84 230.615 93.881 231.474 93.8828C232.701 93.8845 233.985 93.8889 235.192 93.6265C235.223 93.6195 235.249 93.5941 235.278 93.5767C235.511 92.9019 235.727 92.2566 235.904 91.6542C236.482 89.0133 236.894 86.3334 237.174 83.6454C237.292 82.5059 237.594 81.1012 237.508 79.8666C236.194 79.6425 234.369 79.1631 232.431 78.7368C231.583 81.9531 230.705 85.1607 229.973 88.3883ZM274.175 142.799C276.435 143.206 278.843 142.535 281.075 141.268C283.981 139.618 286.583 136.96 288.144 134.358C288.233 134.211 288.426 134.083 288.667 133.981C286.24 130.074 284.532 125.716 283.667 122.034C282.534 117.22 282.38 112.771 286.07 109.03C288.018 107.057 291.61 104.614 291.584 101.536C291.562 98.7799 290.276 97.0345 288.449 96.3728C286.688 96.2324 284.989 96.6918 284.96 96.7014L284.841 96.718H284.022C283.768 96.9613 283.183 97.2116 282.671 97.324C281.862 97.8027 280.265 97.3971 280.624 96.7223C280.621 96.7205 280.618 96.7198 280.614 96.718H279.851L279.722 96.5741C279.652 96.4957 279.44 96.2602 279.129 95.9141C275.421 93.7702 272.366 90.9193 269.563 87.7789C270.047 90.9839 269.533 94.1906 266.695 96.0973C262.985 98.59 255.683 98.2324 251.624 97.3213C247.874 96.4808 246.791 94.7118 247.151 90.7274C247.185 90.3534 247.221 89.9576 247.262 89.5514C246.766 89.6909 246.244 89.716 245.982 89.5016C244.026 87.8999 241.497 86.5487 239.059 87.7623C238.852 89.4005 238.772 91.7457 237.769 93.1154C236.238 97.48 234.085 103.252 238.374 103.947C239.786 104.177 237.566 105.386 236.812 105.264C231.635 104.424 233.324 99.1705 234.904 94.6412C233.046 95.1347 230.823 95.2708 228.649 95.1165C227.434 102.749 227.319 111.077 231.654 117.42C235.405 122.908 240.981 124.759 246.954 125.321C248.015 125.312 249.117 125.28 250.198 125.244C251.401 125.203 252.644 125.162 253.779 125.162C255.649 125.162 256.965 125.278 257.93 125.527C260.252 125.669 262.5 126.271 263.945 128.334C266.252 131.629 267.245 135.565 269.32 138.983C269.334 139.005 269.323 139.035 269.303 139.065C269.302 139.075 269.306 139.083 269.301 139.094C269.246 139.213 269.183 139.33 269.128 139.45C269.169 139.477 269.205 139.509 269.233 139.547C270.676 141.476 272.378 142.476 274.175 142.799ZM221.745 86.4779C221.895 89.0089 221.692 91.5923 224.372 92.6804C225.013 92.9402 225.677 93.1452 226.352 93.3117C227.292 88.3525 228.731 83.3602 230.046 78.4011L229.673 78.3515L226.284 77.9503C226.002 77.959 225.727 77.9791 225.464 78.0105C225.435 78.0646 225.411 78.1195 225.381 78.1735C225.122 78.6382 223.845 78.8528 223.221 78.797C223.051 78.9243 222.886 79.0584 222.751 79.2206C221.249 81.0131 221.617 84.3227 221.745 86.4779ZM142.714 284.367C144.119 287.433 147.934 283.021 149.145 281.645C149.243 281.532 149.465 281.428 149.734 281.343C150.961 278.062 153.651 274.309 154.186 272.543C154.523 271.429 157.041 271.438 156.61 272.862C155.809 275.507 153.951 277.774 152.712 280.218C152.324 280.982 150.97 283.123 151.615 283.999C152.291 284.919 153.136 285.665 154.34 285.243C158.338 283.843 161.317 279.039 163.566 275.667C163.578 275.649 163.594 275.635 163.608 275.617C163.793 275.271 163.979 274.934 164.161 274.612C164.576 273.879 167.116 273.62 166.517 274.679C166.335 275 166.119 275.408 165.887 275.873C165.893 276.042 165.839 276.236 165.693 276.456C165.601 276.593 165.501 276.743 165.404 276.889C164.051 279.868 162.634 284.216 164.422 285.989C166.238 285.989 168.055 285.989 169.871 285.99C171.258 285.137 172.415 283.646 173.387 282.178C173.477 281.946 173.564 281.727 173.641 281.538C173.707 281.374 173.865 281.232 174.069 281.115C174.361 280.647 174.635 280.198 174.891 279.795C176.222 277.696 177.487 275.535 179.2 273.718C179.785 273.098 182.257 273.066 181.232 274.152C179.343 276.153 177.75 279.212 175.897 281.96C175.53 283.125 175.204 284.746 175.283 285.991C176.774 285.991 178.266 285.991 179.757 285.992C181.04 284.503 181.069 282.744 182.275 280.996C185.441 276.405 194.187 280.969 198.338 277.994C198.478 277.894 198.717 277.817 198.986 277.767C199.228 273.37 198.098 268.673 193.78 266.777C181.535 266.784 169.29 266.832 157.045 266.834C156.723 266.834 156.526 266.785 156.424 266.705C150.605 267.202 146.898 272.544 144.641 277.491C143.88 279.168 141.868 282.522 142.714 284.367ZM216.431 283.766C215.406 284.658 214.257 285.47 213.04 286.001C214.363 286.001 215.684 286.001 217.008 286.001C216.525 285.405 216.366 284.638 216.431 283.766ZM192.767 280.646C191.45 280.679 190.097 280.611 188.701 280.536C186.745 280.43 184.339 280.647 183.842 282.983C183.715 283.583 183.538 284.188 183.205 284.713C182.914 285.171 182.587 285.597 182.228 285.994C190.866 285.996 199.503 285.998 208.142 286C207.522 285.455 207.361 284.611 207.451 283.669C202.594 282.38 197.485 282.04 192.512 281.429C191.754 281.336 192.158 280.951 192.767 280.646ZM175.705 287.411C176.098 287.922 176.797 288.029 177.94 287.411C177.194 287.411 176.45 287.411 175.705 287.411ZM161.091 282.721C159.957 284.001 158.711 285.155 157.377 285.988C158.844 285.988 160.311 285.988 161.779 285.989C161.168 285.081 160.989 283.951 161.091 282.721ZM145.782 285.986C147.087 285.986 148.392 285.986 149.697 285.987C149.225 285.392 149.071 284.63 149.136 283.766C148.121 284.65 146.985 285.455 145.782 285.986ZM271.911 296.13C271.808 296.007 271.741 295.851 271.741 295.649C271.741 292.704 271.741 289.76 271.741 286.815C271.741 286.728 271.761 286.649 271.791 286.573C269.791 286.563 267.791 286.54 265.791 286.506C265.791 289.478 265.791 292.45 265.791 295.422C265.791 295.704 265.583 295.942 265.29 296.112C267.496 296.118 269.704 296.128 271.911 296.13ZM249.294 286.237C248.927 286.613 248.532 286.961 248.096 287.268C246.261 288.559 243.798 289.634 241.532 288.958C240.102 288.532 239.687 287.37 239.728 286.049C238.022 287.494 236.008 288.361 233.461 288.1C229.311 287.675 228.16 285.444 228.386 282.722C226.061 285.343 223.275 287.488 220.216 287.277C220.008 287.262 219.818 287.237 219.629 287.212C219.367 287.337 219.095 287.42 218.869 287.42C206.107 287.42 193.345 287.416 180.583 287.411C178.774 288.634 176.417 289.608 174.238 288.957C173.334 288.687 172.843 288.12 172.607 287.41C171.855 287.41 171.101 287.41 170.348 287.41C169.123 287.986 167.749 288.262 166.167 288.1C165.073 287.988 164.192 287.747 163.486 287.408C149.167 287.403 134.847 287.399 120.529 287.398C120.529 289.956 120.529 292.514 120.529 295.072C168.158 295.088 215.783 295.976 263.412 296.108C263.311 295.997 263.247 295.854 263.247 295.669C263.247 292.599 263.247 289.529 263.247 286.458C258.595 286.368 253.945 286.264 249.294 286.237ZM265.48 278.093C265.563 277.964 265.682 277.84 265.828 277.729C265.412 277.771 265.012 277.681 264.8 277.434C264.678 277.292 264.616 277.101 264.65 276.852C265.253 272.367 263.927 268.002 261.997 263.99C255.843 263.897 248.61 263.104 243.123 266.086C242.994 266.518 242.314 266.91 241.687 266.991C240.901 267.556 240.158 268.213 239.476 268.989C238.959 269.576 236.425 269.769 237.131 268.965C238.04 267.93 239.027 267.065 240.072 266.331C235.038 263.229 230.047 264.133 225.888 268.602C225.166 269.378 222.722 269.09 223.795 267.937C224.439 267.245 225.113 266.619 225.808 266.058C225.433 266.336 224.662 266.648 224.296 266.658C218.141 266.837 214.271 272.384 211.94 277.493C211.177 279.169 209.165 282.523 210.011 284.368C211.416 287.434 215.23 283.021 216.44 281.646C216.539 281.533 216.761 281.429 217.031 281.344C218.257 278.064 220.948 274.311 221.482 272.544C221.819 271.431 224.337 271.44 223.905 272.864C223.105 275.509 221.248 277.775 220.008 280.22C219.621 280.984 218.267 283.125 218.911 284C219.588 284.92 220.432 285.667 221.637 285.245C225.634 283.844 228.614 279.04 230.862 275.669C230.875 275.651 230.89 275.637 230.904 275.619C231.089 275.273 231.275 274.936 231.457 274.613C231.872 273.881 234.412 273.622 233.814 274.68C233.631 275.002 233.415 275.41 233.183 275.874C233.189 276.043 233.135 276.237 232.989 276.456C232.897 276.594 232.797 276.745 232.7 276.891C230.815 281.042 228.794 287.858 235.508 286.651C237.66 286.265 239.346 284.198 240.684 282.18C240.775 281.948 240.861 281.729 240.938 281.541C241.004 281.377 241.163 281.235 241.366 281.117C241.658 280.65 241.932 280.201 242.188 279.798C243.519 277.699 244.784 275.537 246.498 273.721C247.083 273.101 249.554 273.068 248.529 274.155C246.64 276.156 245.048 279.215 243.194 281.963C242.332 284.703 241.686 289.971 246.035 286.912C248.382 285.259 248.108 283.121 249.572 280.999C251.673 277.952 256.232 278.936 260.274 279.074C262.249 279.14 264.099 279.001 265.48 278.093ZM351.344 291.934C351.843 291.722 352.34 291.506 352.825 291.257C370.609 282.17 363.169 255.934 359.43 240.676C353.823 217.787 348.115 194.95 343.638 171.799C341.92 162.919 338.136 153.397 330.187 148.311C322.134 143.158 312.537 143.062 303.363 144.463C303.345 144.465 303.33 144.465 303.311 144.467C303.06 144.578 302.787 144.639 302.53 144.608C297.313 143.984 292.96 140.236 289.696 135.55C285.043 142.019 274.35 148.113 267.952 141.737C264.683 147.654 259.946 152.73 253.996 155.824C250.997 157.556 246.919 159.339 242.791 159.339C242.01 159.339 241.245 159.274 240.516 159.144C240.483 159.138 240.452 159.131 240.42 159.126C235.98 159.162 231.592 158.223 227.646 156.203C217.198 168.093 217.921 185.086 217.727 200.019C217.595 210.152 218.316 220.395 217.064 230.482C215.972 239.284 213.876 247.916 212.723 256.708C217.647 255.398 222.744 254.791 228.138 255.354C229.405 255.486 227.039 256.442 226.5 256.386C221.493 255.863 216.804 256.455 212.286 257.703C211.987 257.867 211.548 257.976 211.14 258.032C206.031 259.577 201.13 261.931 196.235 264.46C195.653 264.76 195.072 265.063 194.489 265.367C194.733 265.304 194.97 265.274 195.164 265.292C195.24 265.299 195.311 265.311 195.372 265.335C195.42 265.353 195.462 265.377 195.51 265.396C195.774 265.396 196.037 265.395 196.3 265.395C197.12 265.395 197.128 265.714 196.819 266.045C200.86 268.454 201.858 273.447 201.484 278.041C201.434 278.654 200.235 279.071 199.504 278.931C199.204 279.109 198.903 279.269 198.599 279.414C197.556 279.911 196.489 280.226 195.397 280.412C195.771 280.455 196.144 280.499 196.519 280.541C200.274 280.962 204.061 281.348 207.744 282.166C208.022 281.198 208.427 280.245 208.746 279.506C211.872 272.278 216.934 265.877 225.384 265.631C225.983 265.614 226.095 265.739 225.969 265.906C225.95 265.93 225.925 265.957 225.896 265.983C225.929 265.957 225.963 265.936 225.995 265.91C230.452 262.409 235.829 261.644 240.96 264.328C244.202 256.056 241.794 248.005 237.589 240.43C233.956 233.887 228.418 227.043 227.262 219.461C224.907 204.016 239.487 193.528 239.87 178.629C239.892 177.741 242.413 177.329 242.396 177.953C242.007 193.127 225.05 205.462 230.352 221.172C235.222 235.608 250.192 248.28 243.225 264.583C249.02 262.1 256.014 262.509 262.383 262.606C262.487 262.534 262.601 262.47 262.722 262.419C262.911 262.067 263.353 261.758 263.938 261.75C281.375 261.526 299.904 252.376 317.66 252.179C314.653 244.62 314.415 236.567 312.431 228.731C310.244 220.095 307.643 211.49 307.472 202.516C307.454 201.567 309.985 201.085 309.999 201.84C310.17 210.901 313.032 219.296 314.958 228.054C316.739 236.156 317.21 244.524 320.48 252.232C326.216 252.493 331.861 253.786 337.35 256.75C338.534 257.389 336.273 258.613 335.383 258.132C313.243 246.178 287.62 262.711 264.574 263.426C266.513 267.591 267.839 272.058 267.216 276.693C267.182 276.94 267.045 277.147 266.853 277.312C267.038 277.294 267.217 277.305 267.376 277.363C275.201 280.266 283.128 282.992 291.156 285.274C300.704 287.989 310.64 289.849 320.376 291.777C324.389 292.571 328.76 293.424 333.18 293.872C339.433 294.503 345.774 294.304 351.344 291.934ZM100.652 297.826C99.5629 298.273 98.4042 298.659 97.222 298.948C97.215 298.95 97.2106 298.953 97.2045 298.956C94.3509 300.064 91.085 300.119 88.0648 300.2C82.8075 300.341 77.5354 300.17 72.2912 299.776C66.2928 299.324 55.4695 300.061 52.1111 293.9C47.3054 285.082 47.805 272.601 49.5618 262.542C35.8927 262.542 22.2254 262.542 8.5564 262.542C8.35587 262.613 8.15709 262.654 7.98882 262.649C2.22495 262.452 0.376624 257.47 0.847429 252.363C0.836966 223.356 0.326953 194.351 0.317363 165.344C-0.210113 159.526 2.66787 153.938 8.98711 153.689C9.3716 153.673 9.5704 153.737 9.64713 153.84C55.0039 153.84 100.361 153.84 145.717 153.84C145.956 153.742 146.201 153.681 146.403 153.689C146.845 153.706 147.26 153.763 147.661 153.84C149.709 153.84 151.755 153.84 153.803 153.84C154.042 153.742 154.287 153.681 154.488 153.689C160.384 153.922 162.622 159.578 162.161 164.804C162.149 193.555 161.65 222.302 161.633 251.052C162.116 256.639 159.352 261.779 153.581 262.365C153.403 262.417 153.252 262.449 153.163 262.449C130.45 262.449 107.738 262.449 85.0264 262.449C84.696 264.619 84.4335 266.804 84.2775 269.011C83.5713 278.943 83.0438 303.535 99.6344 296.718C100.797 296.238 102.28 297.157 100.652 297.826ZM150.329 154.914C153.288 156.896 154.415 160.961 154.075 164.803C154.064 193.715 153.557 222.623 153.545 251.536C153.936 255.906 152.264 259.752 148.802 261.472C150.14 261.472 151.48 261.472 152.818 261.472C153.166 261.242 153.594 261.058 153.909 261.046C157.96 260.892 159.205 256.093 159.148 252.608C159.121 252.573 159.103 252.534 159.103 252.487C159.103 252.231 159.106 251.975 159.107 251.719C159.105 251.702 159.105 251.686 159.103 251.67C159.101 251.656 159.107 251.642 159.107 251.629C159.126 222.867 159.626 194.106 159.635 165.343C159.635 165.322 159.644 165.302 159.646 165.282C159.641 165.246 159.634 165.212 159.638 165.172C160.01 161.066 158.477 155.263 153.491 155.066C153.178 155.053 152.984 154.997 152.879 154.915C152.029 154.914 151.178 154.914 150.329 154.914ZM49.7701 261.378C49.873 260.832 49.9759 260.287 50.0849 259.758C53.6961 242.158 59.0345 224.887 54.0274 206.968C53.7903 206.117 55.9019 205.475 56.446 206.101C66.7819 206.101 77.1178 206.101 87.4537 206.101C88.1538 205.757 89.1991 205.709 89.3613 206.291C92.8688 218.849 91.5732 231.402 88.8303 243.977C87.553 249.831 86.1302 255.616 85.1807 261.496C85.2479 261.482 85.308 261.473 85.3508 261.473C105.149 261.473 124.948 261.473 144.746 261.473C145.095 261.243 145.525 261.059 145.842 261.048C150.068 260.902 151.248 256.085 151.039 252.579C151.024 252.552 151.015 252.523 151.015 252.489C151.015 252.397 151.016 252.304 151.016 252.211C151.016 252.205 151.016 252.199 151.015 252.193C151.014 252.188 151.017 252.184 151.016 252.179C151.03 223.233 151.538 194.29 151.547 165.344C151.547 165.323 151.555 165.303 151.558 165.283C151.553 165.247 151.546 165.213 151.549 165.173C151.922 161.066 150.389 155.263 145.403 155.066C145.09 155.054 144.895 154.997 144.791 154.916C99.3824 154.916 53.9751 154.916 8.56688 154.916C8.36112 155.003 8.15713 155.059 7.98711 155.066C3.54499 155.243 2.5284 161.221 2.84227 164.668C2.85186 193.718 3.36365 222.764 3.37324 251.813C3.37324 251.834 3.36539 251.852 3.3619 251.873C3.36713 251.909 3.37494 251.944 3.37058 251.985C2.99045 255.977 4.10819 261.106 8.98451 261.274C9.24083 261.282 9.40996 261.323 9.5233 261.381C22.9404 261.378 36.3548 261.378 49.7701 261.378ZM89.4066 298.783C87.8905 298.185 86.5251 297.163 85.4449 295.565C81.743 290.087 81.3908 282.776 81.4527 276.368C81.6776 252.913 93.3466 230.631 86.8843 207.157C76.8457 207.157 66.8089 207.157 56.7712 207.157C60.8393 222.717 57.3692 237.843 53.9542 253.217C51.5435 264.072 49.4388 276.596 52.4197 287.551C53.4764 291.433 54.7999 295.45 59.0197 296.424C63.0625 297.356 67.2221 297.797 71.3521 298.13C76.0951 298.512 80.8598 298.769 85.6201 298.752C86.8067 298.748 88.0971 298.786 89.4066 298.783ZM89.6097 100.205C92.6072 89.1302 95.6038 78.0559 98.6013 66.9816C98.7077 66.5883 99.3755 66.298 99.9988 66.2021C100.676 65.8655 101.737 65.7339 101.976 66.2457C102.004 66.3067 102.042 66.3669 102.072 66.4271C116.723 70.3914 131.372 74.3565 146.023 78.3225C146.703 77.9145 149.04 77.8641 147.959 78.6906C147.908 78.7298 147.848 78.7629 147.796 78.8013C147.91 78.8326 148.024 78.8631 148.139 78.8936C148.575 79.0122 148.704 79.2162 148.651 79.4394C148.649 79.4577 148.652 79.4743 148.647 79.4943C145.649 90.5687 142.653 101.643 139.655 112.718C139.615 112.864 139.497 112.997 139.333 113.11C138.893 113.486 138.134 113.78 137.651 113.649C122.117 109.445 106.582 105.242 91.0475 101.037C90.7223 100.949 90.5714 100.812 90.5348 100.656C89.9751 100.706 89.5077 100.582 89.6097 100.205ZM103.784 68.8464C104.296 69.4523 104.818 70.0417 105.255 70.6076C107.426 73.4176 109.61 76.217 111.8 79.0131C114.666 82.6749 117.539 86.3334 120.418 89.9847C124.183 88.2968 127.948 86.6061 131.708 84.906C135.279 83.2922 140.271 81.7116 143.88 79.6984C130.515 76.0802 117.149 72.4637 103.784 68.8464ZM92.2332 99.4626C92.3448 99.4582 92.4529 99.4635 92.5471 99.4888C107.537 103.546 122.529 107.603 137.518 111.659C140.349 101.197 143.18 90.7361 146.012 80.2738C145.89 80.2407 145.769 80.2084 145.648 80.1752C142.106 82.1736 137.758 83.5241 134.264 85.1048C129.417 87.2975 124.566 89.4815 119.71 91.655C118.808 92.0596 117.628 91.655 118.181 91.0918C114.902 86.9322 111.629 82.7665 108.368 78.592C105.997 75.5588 102.666 72.3058 100.514 68.8594C97.7547 79.061 94.9935 89.2618 92.2332 99.4626ZM34.537 40.144C32.1167 31.0496 29.6964 21.955 27.277 12.8607C27.1977 12.5642 27.4906 12.2854 27.9021 12.0918C28.2099 11.7806 29.0085 11.4519 29.6284 11.4196C41.5624 8.24431 53.4947 5.0681 65.4296 1.89366C65.4636 1.8213 65.5072 1.74806 65.5386 1.6757C65.876 0.902356 68.3625 0.621489 68.0556 1.32682C68.0539 1.33031 68.0513 1.33483 68.0495 1.33832C68.2056 1.36186 68.3346 1.40801 68.4393 1.47689C68.6398 1.52833 68.7897 1.62852 68.8351 1.79766C71.2536 10.892 73.6756 19.9864 76.0959 29.0808C76.1421 29.2551 76.0558 29.4225 75.8972 29.5707C75.7646 29.8123 75.4961 30.0391 75.0305 30.1629C62.2735 33.5588 49.5156 36.9546 36.7585 40.3487C36.4786 40.4228 36.2511 40.4185 36.0505 40.3845C35.3958 40.5798 34.6494 40.5659 34.537 40.144ZM31.8246 12.4579C35.0078 14.1145 38.9591 15.1425 42.1422 16.4215C45.4876 17.7668 48.8355 19.1059 52.1861 20.4398C54.2506 17.5767 56.3143 14.7134 58.3701 11.8424C60.1723 9.3253 62.6771 6.58869 64.4017 3.78915C53.5418 6.67849 42.6837 9.5686 31.8246 12.4579ZM30.2335 13.7998C32.4419 22.0999 34.6486 30.399 36.8596 38.6982C49.0273 35.4619 61.195 32.2222 73.3627 28.9833C71.1342 20.6108 68.9057 12.2391 66.6781 3.86663C64.9204 6.65396 62.5123 9.31306 60.7041 11.8345C58.3013 15.1877 55.8923 18.5375 53.4782 21.8811C53.0501 22.4731 50.6943 22.7433 51.0953 21.9752C47.1633 20.4102 43.2347 18.8392 39.3104 17.2585C36.4839 16.1198 33.1324 15.1834 30.2335 13.7998ZM71.7994 97.5916C72.0505 97.7145 72.129 97.8793 72.095 98.0546C72.0923 98.0729 72.0958 98.0877 72.0897 98.1069C70.183 104.576 68.2762 111.045 66.3677 117.515C66.3625 117.533 66.3468 117.548 66.3389 117.565C66.318 117.611 66.2919 117.658 66.2578 117.705C65.9117 118.179 64.9396 118.624 64.3616 118.453C55.2881 115.778 46.2147 113.103 37.1404 110.427C36.884 110.351 36.7384 110.247 36.6678 110.128C36.2755 110.106 36.0026 109.968 36.0889 109.676C37.9965 103.207 39.9042 96.7398 41.8109 90.2706C41.9094 89.9341 42.4195 89.6761 42.9557 89.5497C43.6235 89.2506 44.5773 89.1529 44.8223 89.6159C53.3796 92.1399 61.9387 94.6612 70.4968 97.1861C71.2754 97.0937 72.149 97.1923 71.7994 97.5916ZM46.28 92.038C47.5303 93.7808 49.0901 95.4537 50.2688 97.0309C51.9009 99.2167 53.5383 101.399 55.1782 103.579C57.2916 102.687 59.4051 101.794 61.5158 100.896C63.3145 100.13 65.8777 99.2873 67.8316 98.3928C60.6474 96.2733 53.4642 94.1566 46.28 92.038ZM69.4131 98.9988C67.3608 99.9831 65.0756 100.711 63.0808 101.56C60.2612 102.761 57.439 103.956 54.615 105.145C53.7946 105.491 52.7362 105.185 52.9611 104.718C51.1607 102.326 49.3638 99.9307 47.5739 97.5305C46.3768 95.9263 44.8049 94.2393 43.5765 92.4703C41.9609 97.9473 40.3462 103.424 38.7306 108.902C47.2443 111.412 55.7572 113.923 64.2718 116.433C65.9859 110.623 67.6991 104.811 69.4131 98.9988ZM143.455 31.7349C146.817 27.2457 150.18 22.7564 153.542 18.2681C153.753 17.9865 154.411 17.7806 154.991 17.7266C155.651 17.5478 156.365 17.5863 156.402 17.9777C156.407 18.0283 156.418 18.0798 156.423 18.1304C162.361 22.5786 168.3 27.0267 174.24 31.475C174.946 31.4296 175.257 31.768 175.07 32.1167C175.158 32.2048 175.212 32.2936 175.236 32.3843C175.24 32.4035 175.244 32.4228 175.246 32.442C175.275 32.6904 175.097 32.9344 174.818 33.1297C171.599 37.4271 168.38 41.7255 165.161 46.0229C165.064 46.6951 163.523 47.2932 162.906 46.8302C156.609 42.1135 150.311 37.3967 144.013 32.6799C143.833 32.5448 143.751 32.4008 143.734 32.2587C143.4 32.2003 143.227 32.0391 143.455 31.7349ZM157.226 21.5601C157.658 22.9054 158.164 24.2404 158.532 25.495C159.182 27.7112 159.837 29.9273 160.495 32.1418C162.462 32.0573 164.428 31.972 166.395 31.8805C167.596 31.8255 169.327 31.8264 170.872 31.7802C166.323 28.3738 161.774 24.9673 157.226 21.5601ZM146.052 31.3773C151.977 35.815 157.903 40.2528 163.829 44.6914C166.738 40.8082 169.646 36.924 172.554 33.0407C172.513 33.0102 172.472 32.9789 172.43 32.9484C170.488 33.1567 168.43 33.0653 166.55 33.1533C163.899 33.2771 161.248 33.3948 158.597 33.5073C157.85 33.5396 157.791 33.2927 158.031 33.0041C158.026 32.9928 158.018 32.985 158.014 32.9728C157.286 30.5255 156.563 28.0756 155.846 25.6257C155.37 23.9996 154.644 22.2299 154.208 20.4905C151.489 24.1201 148.769 27.7486 146.052 31.3773ZM156.786 123.192C163.688 120.447 170.592 117.701 177.495 114.956C177.737 114.234 179.854 113.882 180.011 114.444C180.251 114.484 180.441 114.585 180.515 114.771C182.588 119.984 184.663 125.196 186.735 130.409C186.772 130.501 186.762 130.594 186.718 130.686C186.718 130.92 186.515 131.174 185.998 131.38C178.687 134.287 171.376 137.195 164.065 140.103C163.823 140.2 163.571 140.232 163.336 140.219C162.707 140.402 162 140.392 161.836 139.982C159.764 134.77 157.691 129.557 155.619 124.346C155.526 124.109 155.73 123.87 156.057 123.679C156.104 123.633 156.161 123.589 156.223 123.543C156.338 123.419 156.516 123.299 156.786 123.192ZM178.75 117.365C178.008 118.681 177.144 119.968 176.472 121.188C175.246 123.418 174.015 125.645 172.779 127.87C172.453 128.457 170.436 128.785 170.371 128.16C168.027 127.535 165.682 126.906 163.34 126.271C161.909 125.883 160.287 125.599 158.75 125.185C160.503 129.597 162.257 134.008 164.012 138.42C170.664 135.774 177.316 133.129 183.969 130.483C182.23 126.11 180.49 121.739 178.75 117.365ZM159.747 123.717C161.598 124.327 163.671 124.652 165.46 125.135C167.346 125.644 169.232 126.149 171.12 126.653C172.045 124.986 172.968 123.318 173.888 121.649C174.699 120.176 175.788 118.606 176.616 117.008C170.994 119.244 165.37 121.481 159.747 123.717Z" fill="#003049"/>
</svg>
