<svg width="48" height="48" viewBox="0 0 48 48" fill="none" xmlns="http://www.w3.org/2000/svg">
<path d="M24.0002 3.9986C35.0602 3.9986 44.0002 12.9606 44.0002 23.9986C44.0002 35.0406 35.0602 43.9986 24.0002 43.9986C12.9602 43.9986 4.00018 35.0406 4.00018 23.9986C4.00018 12.9606 12.9602 3.9986 24.0002 3.9986ZM24.0002 29.8606C23.0402 29.8606 22.2602 30.6406 22.2602 31.6006C22.2602 32.5606 23.0402 33.3606 24.0202 33.3606C24.9802 33.3606 25.7602 32.5606 25.7602 31.6006C25.7602 30.6406 24.9802 29.8606 24.0002 29.8606ZM24.0002 14.6586C23.0402 14.6586 22.2402 15.4606 22.2402 16.4186V25.2586C22.2402 26.2206 23.0402 26.9986 24.0002 26.9986C24.9602 26.9986 25.7402 26.2206 25.7402 25.2586V16.4186C25.7402 15.4606 24.9602 14.6586 24.0002 14.6586Z" fill="#EB5757"/>
</svg>
