<svg width="24" height="24" viewBox="0 0 24 24" fill="none" xmlns="http://www.w3.org/2000/svg">
<path d="M17.2006 0C21.2677 0 24 2.85374 24 7.10007V16.8999C24 21.1463 21.2677 24 17.1994 24H6.79942C2.73227 24 0 21.1463 0 16.8999V7.10007C0 2.85374 2.73227 0 6.79942 0H17.2006ZM18.5239 12.6601C17.2376 11.8576 16.2445 12.9845 15.9766 13.3449C15.7184 13.6929 15.4963 14.0768 15.2622 14.4607C14.6903 15.4081 14.035 16.5003 12.9007 17.1356C11.2524 18.0483 10.001 17.2074 9.10085 16.5957C8.76298 16.3678 8.43476 16.1523 8.10775 16.0087C7.30167 15.6607 6.57645 16.057 5.50008 17.4241C4.93535 18.1387 4.37545 18.8471 3.8083 19.5529C3.46922 19.9752 3.55007 20.6266 4.0074 20.909C4.73745 21.3585 5.62799 21.6 6.63437 21.6H16.7477C17.3184 21.6 17.8904 21.522 18.4358 21.3437C19.6642 20.9424 20.6392 20.0235 21.1485 18.8099C21.5781 17.7895 21.7868 16.5511 21.385 15.5207C21.251 15.1789 21.0507 14.8607 20.7696 14.5808C20.0323 13.8489 19.3433 13.1653 18.5239 12.6601ZM7.79863 4.8C6.14426 4.8 4.8 6.14608 4.8 7.8C4.8 9.45392 6.14426 10.8 7.79863 10.8C9.4518 10.8 10.7973 9.45392 10.7973 7.8C10.7973 6.14608 9.4518 4.8 7.79863 4.8Z" fill="#003049"/>
</svg>
