<svg width="20" height="20" viewBox="0 0 20 20" fill="none" xmlns="http://www.w3.org/2000/svg">
<path d="M16.1668 12.3792C15.4951 12.2347 14.9637 12.5466 14.4932 12.8189C14.0114 13.0996 13.0951 13.8429 12.57 13.6526C9.88108 12.5455 7.35213 10.192 6.25739 7.49237C6.06444 6.95598 6.80424 6.03391 7.08283 5.54637C7.35316 5.07443 7.65858 4.53803 7.51928 3.8613C7.3934 3.25317 5.76522 1.18139 5.18947 0.614843C4.80977 0.240613 4.42078 0.0347856 4.02147 0.00152065C2.5202 -0.0629302 0.843516 1.94024 0.549452 2.41947C-0.187255 3.44133 -0.183128 4.80103 0.561834 6.44973C2.35717 10.8781 9.14747 17.5613 13.5925 19.4241C14.4128 19.8077 15.1629 20 15.8366 20C16.496 20 17.0831 19.816 17.5876 19.4511C17.9684 19.2318 20.0536 17.4719 19.9989 15.9302C19.9659 15.5373 19.7606 15.1444 19.3912 14.7639C18.8289 14.1828 16.7704 12.506 16.1668 12.3792Z" fill="#003049"/>
</svg>
