<svg width="29" height="29" viewBox="0 0 29 29" fill="none" xmlns="http://www.w3.org/2000/svg">
<path d="M28.1813 0.843875C27.456 0.0994672 26.3826 -0.177861 25.3817 0.114063L2.04159 6.90131C0.985563 7.19469 0.237056 8.0369 0.0354237 9.1068C-0.170561 10.1957 0.548934 11.5779 1.48892 12.156L8.78686 16.6414C9.53536 17.1012 10.5015 16.9858 11.1209 16.3611L19.4777 7.95224C19.8984 7.51435 20.5947 7.51435 21.0154 7.95224C21.436 8.37553 21.436 9.06155 21.0154 9.49944L12.644 17.9098C12.0231 18.533 11.9071 19.5037 12.364 20.2569L16.8231 27.628C17.3454 28.5037 18.2447 29 19.2311 29C19.3472 29 19.4777 29 19.5938 28.9854C20.7252 28.8394 21.6246 28.0658 21.9582 26.9711L28.8776 3.66095C29.1822 2.6684 28.9066 1.58828 28.1813 0.843875Z" fill="#003049"/>
</svg>
